<svg width="375" height="667" viewBox="0 0 375 667" fill="none" xmlns="http://www.w3.org/2000/svg">
<rect width="375" height="667" fill="#DEDEDE"/>
<path d="M28.8906 21.1185L28.8927 21.1873L28.9297 21.2454C29.0545 21.441 29.1103 21.7174 29.078 22.0776C29.0458 22.4366 28.9274 22.8592 28.7275 23.324C28.3278 24.2532 27.6179 25.316 26.7034 26.3166C24.9094 28.2794 22.3925 29.9356 19.9934 29.9356C17.4398 29.9356 15.6451 29.9268 14.2115 29.2126C12.8001 28.5095 11.6974 27.0949 10.6322 24.1455C9.60092 21.29 10.7762 18.1807 12.752 16.2339C13.7373 15.2631 14.9052 14.5992 16.0676 14.3994C17.2223 14.2009 18.3798 14.4576 19.3783 15.3428L19.4899 15.4417L19.63 15.3906C21.6981 14.6348 23.9856 15.1168 25.7805 16.2799C27.5791 17.4454 28.8345 19.262 28.8906 21.1185Z" fill="#FD0215" stroke="black" stroke-width="0.5"/>
<path d="M27.1512 26.1244C27.7722 24.4314 27.7846 20.3597 22.8666 17.6169" stroke="black" stroke-width="0.3"/>
<path d="M12.996 15.7264C13.8838 15.2759 15.7483 14.5552 16.1034 15.2759" stroke="black" stroke-width="0.5"/>
<path d="M20.5699 14.0249C22.0306 14.194 21.7485 14.3168 21.3235 14.2382C21.0827 14.5747 21.6939 13.245 22.8088 14.5181C23.9237 15.7911 21.6761 16.8669 21.1147 15.6888C21.8463 16.3521 21.8571 16.9117 21.8738 17.9111C20.1926 18.4597 19.0765 16.3726 19.5932 16.7403C19.5932 16.7403 19.803 18.9824 17.6059 18.1137C15.4087 17.245 16.1766 14.7015 18.365 15.8915C17.5544 15.5529 15.8648 15.4777 16.3776 14.5181C16.8904 13.5585 18.5678 14.0211 18.2293 14.5181C17.3674 14.633 19.1092 13.8558 20.5699 14.0249Z" fill="#94C11E"/>
<path d="M20.5699 14.0249C22.0306 14.194 21.7485 14.3168 21.3235 14.2382C21.0827 14.5747 21.6939 13.245 22.8088 14.5181C23.9237 15.7911 21.6761 16.8669 21.1147 15.6888C21.8463 16.3521 21.8571 16.9117 21.8738 17.9111C20.1926 18.4597 19.0765 16.3726 19.5932 16.7403C19.5932 16.7403 19.803 18.9824 17.6059 18.1137C15.4087 17.245 16.1766 14.7015 18.365 15.8915C17.5544 15.5529 15.8648 15.4777 16.3776 14.5181C16.8904 13.5585 18.5678 14.0211 18.2293 14.5181C17.3674 14.633 19.1092 13.8558 20.5699 14.0249Z" fill="#94C11E"/>
<path d="M20.5699 14.0249C22.0306 14.194 21.7485 14.3168 21.3235 14.2382C21.0827 14.5747 21.6939 13.245 22.8088 14.5181C23.9237 15.7911 21.6761 16.8669 21.1147 15.6888C21.8463 16.3521 21.8571 16.9117 21.8738 17.9111C20.1926 18.4597 19.0765 16.3726 19.5932 16.7403C19.5932 16.7403 19.803 18.9824 17.6059 18.1137C15.4087 17.245 16.1766 14.7015 18.365 15.8915C17.5544 15.5529 15.8648 15.4777 16.3776 14.5181C16.8904 13.5585 18.5678 14.0211 18.2293 14.5181C17.3674 14.633 19.1092 13.8558 20.5699 14.0249Z" stroke="black"/>
<path d="M18.9054 12.3189C18.6861 14.0582 19.1187 15.1863 19.3624 15.5329C19.5474 15.911 19.805 15.6274 19.9108 15.4383C19.9412 14.4931 20.0022 12.4324 20.0022 11.7518C20.3677 11.1846 19.1796 10.1448 18.9054 12.3189Z" fill="#94C11E" stroke="black" stroke-width="0.5"/>
<path d="M119.891 378.119L119.893 378.187L119.93 378.245C120.054 378.441 120.11 378.717 120.078 379.078C120.046 379.437 119.927 379.859 119.727 380.324C119.328 381.253 118.618 382.316 117.703 383.317C115.909 385.279 113.392 386.936 110.993 386.936C108.44 386.936 106.645 386.927 105.212 386.213C103.8 385.509 102.697 384.095 101.632 381.145C100.601 378.29 101.776 375.181 103.752 373.234C104.737 372.263 105.905 371.599 107.068 371.399C108.222 371.201 109.38 371.458 110.378 372.343L110.49 372.442L110.63 372.391C112.698 371.635 114.986 372.117 116.78 373.28C118.579 374.445 119.834 376.262 119.891 378.119Z" fill="#FD0215" stroke="black" stroke-width="0.5"/>
<path d="M118.151 383.124C118.772 381.431 118.785 377.36 113.867 374.617" stroke="black" stroke-width="0.3"/>
<path d="M103.996 372.726C104.884 372.276 106.748 371.555 107.103 372.276" stroke="black" stroke-width="0.5"/>
<path d="M111.57 371.025C113.031 371.194 112.748 371.317 112.324 371.238C112.083 371.575 112.694 370.245 113.809 371.518C114.924 372.791 112.676 373.867 112.115 372.689C112.846 373.352 112.857 373.912 112.874 374.911C111.193 375.46 110.077 373.373 110.593 373.74C110.593 373.74 110.803 375.982 108.606 375.114C106.409 374.245 107.177 371.702 109.365 372.892C108.554 372.553 106.865 372.478 107.378 371.518C107.89 370.558 109.568 371.021 109.229 371.518C108.367 371.633 110.109 370.856 111.57 371.025Z" fill="#94C11E"/>
<path d="M111.57 371.025C113.031 371.194 112.748 371.317 112.324 371.238C112.083 371.575 112.694 370.245 113.809 371.518C114.924 372.791 112.676 373.867 112.115 372.689C112.846 373.352 112.857 373.912 112.874 374.911C111.193 375.46 110.077 373.373 110.593 373.74C110.593 373.74 110.803 375.982 108.606 375.114C106.409 374.245 107.177 371.702 109.365 372.892C108.554 372.553 106.865 372.478 107.378 371.518C107.89 370.558 109.568 371.021 109.229 371.518C108.367 371.633 110.109 370.856 111.57 371.025Z" fill="#94C11E"/>
<path d="M111.57 371.025C113.031 371.194 112.748 371.317 112.324 371.238C112.083 371.575 112.694 370.245 113.809 371.518C114.924 372.791 112.676 373.867 112.115 372.689C112.846 373.352 112.857 373.912 112.874 374.911C111.193 375.46 110.077 373.373 110.593 373.74C110.593 373.74 110.803 375.982 108.606 375.114C106.409 374.245 107.177 371.702 109.365 372.892C108.554 372.553 106.865 372.478 107.378 371.518C107.89 370.558 109.568 371.021 109.229 371.518C108.367 371.633 110.109 370.856 111.57 371.025Z" stroke="black"/>
<path d="M109.905 369.319C109.686 371.058 110.119 372.186 110.362 372.533C110.547 372.911 110.805 372.627 110.911 372.438C110.941 371.493 111.002 369.432 111.002 368.752C111.368 368.185 110.18 367.145 109.905 369.319Z" fill="#94C11E" stroke="black" stroke-width="0.5"/>
<path d="M129.891 138.119L129.893 138.187L129.93 138.245C130.054 138.441 130.11 138.717 130.078 139.078C130.046 139.437 129.927 139.859 129.727 140.324C129.328 141.253 128.618 142.316 127.703 143.317C125.909 145.279 123.392 146.936 120.993 146.936C118.44 146.936 116.645 146.927 115.212 146.213C113.8 145.509 112.697 144.095 111.632 141.145C110.601 138.29 111.776 135.181 113.752 133.234C114.737 132.263 115.905 131.599 117.068 131.399C118.222 131.201 119.38 131.458 120.378 132.343L120.49 132.442L120.63 132.391C122.698 131.635 124.986 132.117 126.78 133.28C128.579 134.445 129.834 136.262 129.891 138.119Z" fill="#FD0215" stroke="black" stroke-width="0.5"/>
<path d="M128.151 143.124C128.772 141.431 128.785 137.36 123.867 134.617" stroke="black" stroke-width="0.3"/>
<path d="M113.996 132.726C114.884 132.276 116.748 131.555 117.103 132.276" stroke="black" stroke-width="0.5"/>
<path d="M121.57 131.025C123.031 131.194 122.748 131.317 122.324 131.238C122.083 131.575 122.694 130.245 123.809 131.518C124.924 132.791 122.676 133.867 122.115 132.689C122.846 133.352 122.857 133.912 122.874 134.911C121.193 135.46 120.077 133.373 120.593 133.74C120.593 133.74 120.803 135.982 118.606 135.114C116.409 134.245 117.177 131.702 119.365 132.891C118.554 132.553 116.865 132.478 117.378 131.518C117.89 130.558 119.568 131.021 119.229 131.518C118.367 131.633 120.109 130.856 121.57 131.025Z" fill="#94C11E"/>
<path d="M121.57 131.025C123.031 131.194 122.748 131.317 122.324 131.238C122.083 131.575 122.694 130.245 123.809 131.518C124.924 132.791 122.676 133.867 122.115 132.689C122.846 133.352 122.857 133.912 122.874 134.911C121.193 135.46 120.077 133.373 120.593 133.74C120.593 133.74 120.803 135.982 118.606 135.114C116.409 134.245 117.177 131.702 119.365 132.891C118.554 132.553 116.865 132.478 117.378 131.518C117.89 130.558 119.568 131.021 119.229 131.518C118.367 131.633 120.109 130.856 121.57 131.025Z" fill="#94C11E"/>
<path d="M121.57 131.025C123.031 131.194 122.748 131.317 122.324 131.238C122.083 131.575 122.694 130.245 123.809 131.518C124.924 132.791 122.676 133.867 122.115 132.689C122.846 133.352 122.857 133.912 122.874 134.911C121.193 135.46 120.077 133.373 120.593 133.74C120.593 133.74 120.803 135.982 118.606 135.114C116.409 134.245 117.177 131.702 119.365 132.891C118.554 132.553 116.865 132.478 117.378 131.518C117.89 130.558 119.568 131.021 119.229 131.518C118.367 131.633 120.109 130.856 121.57 131.025Z" stroke="black"/>
<path d="M119.905 129.319C119.686 131.058 120.119 132.186 120.362 132.533C120.547 132.911 120.805 132.627 120.911 132.438C120.941 131.493 121.002 129.432 121.002 128.752C121.368 128.185 120.18 127.145 119.905 129.319Z" fill="#94C11E" stroke="black" stroke-width="0.5"/>
<path d="M161.891 498.119L161.893 498.187L161.93 498.245C162.054 498.441 162.11 498.717 162.078 499.078C162.046 499.437 161.927 499.859 161.727 500.324C161.328 501.253 160.618 502.316 159.703 503.317C157.909 505.279 155.392 506.936 152.993 506.936C150.44 506.936 148.645 506.927 147.212 506.213C145.8 505.509 144.697 504.095 143.632 501.145C142.601 498.29 143.776 495.181 145.752 493.234C146.737 492.263 147.905 491.599 149.068 491.399C150.222 491.201 151.38 491.458 152.378 492.343L152.49 492.442L152.63 492.391C154.698 491.635 156.986 492.117 158.78 493.28C160.579 494.445 161.834 496.262 161.891 498.119Z" fill="#FD0215" stroke="black" stroke-width="0.5"/>
<path d="M160.151 503.124C160.772 501.431 160.785 497.36 155.867 494.617" stroke="black" stroke-width="0.3"/>
<path d="M145.996 492.726C146.884 492.276 148.748 491.555 149.103 492.276" stroke="black" stroke-width="0.5"/>
<path d="M153.57 491.025C155.031 491.194 154.748 491.317 154.324 491.238C154.083 491.575 154.694 490.245 155.809 491.518C156.924 492.791 154.676 493.867 154.115 492.689C154.846 493.352 154.857 493.912 154.874 494.911C153.193 495.46 152.077 493.373 152.593 493.74C152.593 493.74 152.803 495.982 150.606 495.114C148.409 494.245 149.177 491.702 151.365 492.891C150.554 492.553 148.865 492.478 149.378 491.518C149.89 490.558 151.568 491.021 151.229 491.518C150.367 491.633 152.109 490.856 153.57 491.025Z" fill="#94C11E"/>
<path d="M153.57 491.025C155.031 491.194 154.748 491.317 154.324 491.238C154.083 491.575 154.694 490.245 155.809 491.518C156.924 492.791 154.676 493.867 154.115 492.689C154.846 493.352 154.857 493.912 154.874 494.911C153.193 495.46 152.077 493.373 152.593 493.74C152.593 493.74 152.803 495.982 150.606 495.114C148.409 494.245 149.177 491.702 151.365 492.891C150.554 492.553 148.865 492.478 149.378 491.518C149.89 490.558 151.568 491.021 151.229 491.518C150.367 491.633 152.109 490.856 153.57 491.025Z" fill="#94C11E"/>
<path d="M153.57 491.025C155.031 491.194 154.748 491.317 154.324 491.238C154.083 491.575 154.694 490.245 155.809 491.518C156.924 492.791 154.676 493.867 154.115 492.689C154.846 493.352 154.857 493.912 154.874 494.911C153.193 495.46 152.077 493.373 152.593 493.74C152.593 493.74 152.803 495.982 150.606 495.114C148.409 494.245 149.177 491.702 151.365 492.891C150.554 492.553 148.865 492.478 149.378 491.518C149.89 490.558 151.568 491.021 151.229 491.518C150.367 491.633 152.109 490.856 153.57 491.025Z" stroke="black"/>
<path d="M151.905 489.319C151.686 491.058 152.119 492.186 152.362 492.533C152.547 492.911 152.805 492.627 152.911 492.438C152.941 491.493 153.002 489.432 153.002 488.752C153.368 488.185 152.18 487.145 151.905 489.319Z" fill="#94C11E" stroke="black" stroke-width="0.5"/>
<path d="M180.686 24.1185L180.688 24.1873L180.725 24.2454C180.85 24.441 180.906 24.7174 180.874 25.0776C180.841 25.4366 180.723 25.8592 180.523 26.324C180.123 27.2532 179.413 28.316 178.499 29.3166C176.705 31.2794 174.188 32.9356 171.789 32.9356C169.235 32.9356 167.441 32.9268 166.007 32.2126C164.596 31.5095 163.493 30.0949 162.428 27.1455C161.397 24.29 162.572 21.1807 164.548 19.2339C165.533 18.2631 166.701 17.5992 167.863 17.3994C169.018 17.2009 170.175 17.4576 171.174 18.3428L171.286 18.4417L171.426 18.3906C173.494 17.6348 175.781 18.1168 177.576 19.2799C179.375 20.4454 180.63 22.262 180.686 24.1185Z" fill="#FD0215" stroke="black" stroke-width="0.5"/>
<path d="M178.947 29.1244C179.568 27.4314 179.58 23.3597 174.662 20.6169" stroke="black" stroke-width="0.3"/>
<path d="M164.792 18.7264C165.679 18.2759 167.544 17.5552 167.899 18.2759" stroke="black" stroke-width="0.5"/>
<path d="M172.365 17.0249C173.826 17.194 173.544 17.3168 173.119 17.2382C172.878 17.5747 173.489 16.245 174.604 17.5181C175.719 18.7911 173.472 19.8669 172.91 18.6888C173.642 19.3521 173.653 19.9117 173.669 20.9111C171.988 21.4597 170.872 19.3726 171.389 19.7403C171.389 19.7403 171.599 21.9824 169.401 21.1137C167.204 20.245 167.972 17.7015 170.161 18.8915C169.35 18.5529 167.66 18.4777 168.173 17.5181C168.686 16.5585 170.363 17.0211 170.025 17.5181C169.163 17.633 170.905 16.8558 172.365 17.0249Z" fill="#94C11E"/>
<path d="M172.365 17.0249C173.826 17.194 173.544 17.3168 173.119 17.2382C172.878 17.5747 173.489 16.245 174.604 17.5181C175.719 18.7911 173.472 19.8669 172.91 18.6888C173.642 19.3521 173.653 19.9117 173.669 20.9111C171.988 21.4597 170.872 19.3726 171.389 19.7403C171.389 19.7403 171.599 21.9824 169.401 21.1137C167.204 20.245 167.972 17.7015 170.161 18.8915C169.35 18.5529 167.66 18.4777 168.173 17.5181C168.686 16.5585 170.363 17.0211 170.025 17.5181C169.163 17.633 170.905 16.8558 172.365 17.0249Z" fill="#94C11E"/>
<path d="M172.365 17.0249C173.826 17.194 173.544 17.3168 173.119 17.2382C172.878 17.5747 173.489 16.245 174.604 17.5181C175.719 18.7911 173.472 19.8669 172.91 18.6888C173.642 19.3521 173.653 19.9117 173.669 20.9111C171.988 21.4597 170.872 19.3726 171.389 19.7403C171.389 19.7403 171.599 21.9824 169.401 21.1137C167.204 20.245 167.972 17.7015 170.161 18.8915C169.35 18.5529 167.66 18.4777 168.173 17.5181C168.686 16.5585 170.363 17.0211 170.025 17.5181C169.163 17.633 170.905 16.8558 172.365 17.0249Z" stroke="black"/>
<path d="M170.701 15.3189C170.482 17.0582 170.914 18.1863 171.158 18.5329C171.343 18.911 171.601 18.6274 171.706 18.4383C171.737 17.4931 171.798 15.4324 171.798 14.7518C172.163 14.1846 170.975 13.1448 170.701 15.3189Z" fill="#94C11E" stroke="black" stroke-width="0.5"/>
<path d="M271.686 381.119L271.688 381.187L271.725 381.245C271.85 381.441 271.906 381.717 271.874 382.078C271.841 382.437 271.723 382.859 271.523 383.324C271.123 384.253 270.413 385.316 269.499 386.317C267.705 388.279 265.188 389.936 262.789 389.936C260.235 389.936 258.441 389.927 257.007 389.213C255.596 388.509 254.493 387.095 253.428 384.145C252.397 381.29 253.572 378.181 255.548 376.234C256.533 375.263 257.701 374.599 258.863 374.399C260.018 374.201 261.175 374.458 262.174 375.343L262.286 375.442L262.426 375.391C264.494 374.635 266.781 375.117 268.576 376.28C270.375 377.445 271.63 379.262 271.686 381.119Z" fill="#FD0215" stroke="black" stroke-width="0.5"/>
<path d="M269.947 386.124C270.568 384.431 270.58 380.36 265.662 377.617" stroke="black" stroke-width="0.3"/>
<path d="M255.792 375.726C256.679 375.276 258.544 374.555 258.899 375.276" stroke="black" stroke-width="0.5"/>
<path d="M263.365 374.025C264.826 374.194 264.544 374.317 264.119 374.238C263.878 374.575 264.489 373.245 265.604 374.518C266.719 375.791 264.472 376.867 263.91 375.689C264.642 376.352 264.653 376.912 264.669 377.911C262.988 378.46 261.872 376.373 262.389 376.74C262.389 376.74 262.599 378.982 260.401 378.114C258.204 377.245 258.972 374.702 261.161 375.892C260.35 375.553 258.66 375.478 259.173 374.518C259.686 373.558 261.363 374.021 261.025 374.518C260.163 374.633 261.905 373.856 263.365 374.025Z" fill="#94C11E"/>
<path d="M263.365 374.025C264.826 374.194 264.544 374.317 264.119 374.238C263.878 374.575 264.489 373.245 265.604 374.518C266.719 375.791 264.472 376.867 263.91 375.689C264.642 376.352 264.653 376.912 264.669 377.911C262.988 378.46 261.872 376.373 262.389 376.74C262.389 376.74 262.599 378.982 260.401 378.114C258.204 377.245 258.972 374.702 261.161 375.892C260.35 375.553 258.66 375.478 259.173 374.518C259.686 373.558 261.363 374.021 261.025 374.518C260.163 374.633 261.905 373.856 263.365 374.025Z" fill="#94C11E"/>
<path d="M263.365 374.025C264.826 374.194 264.544 374.317 264.119 374.238C263.878 374.575 264.489 373.245 265.604 374.518C266.719 375.791 264.472 376.867 263.91 375.689C264.642 376.352 264.653 376.912 264.669 377.911C262.988 378.46 261.872 376.373 262.389 376.74C262.389 376.74 262.599 378.982 260.401 378.114C258.204 377.245 258.972 374.702 261.161 375.892C260.35 375.553 258.66 375.478 259.173 374.518C259.686 373.558 261.363 374.021 261.025 374.518C260.163 374.633 261.905 373.856 263.365 374.025Z" stroke="black"/>
<path d="M261.701 372.319C261.482 374.058 261.914 375.186 262.158 375.533C262.343 375.911 262.601 375.627 262.706 375.438C262.737 374.493 262.798 372.432 262.798 371.752C263.163 371.185 261.975 370.145 261.701 372.319Z" fill="#94C11E" stroke="black" stroke-width="0.5"/>
<path d="M281.686 141.119L281.688 141.187L281.725 141.245C281.85 141.441 281.906 141.717 281.874 142.078C281.841 142.437 281.723 142.859 281.523 143.324C281.123 144.253 280.413 145.316 279.499 146.317C277.705 148.279 275.188 149.936 272.789 149.936C270.235 149.936 268.441 149.927 267.007 149.213C265.596 148.509 264.493 147.095 263.428 144.145C262.396 141.29 263.572 138.181 265.548 136.234C266.533 135.263 267.701 134.599 268.863 134.399C270.018 134.201 271.175 134.458 272.174 135.343L272.285 135.442L272.426 135.391C274.494 134.635 276.781 135.117 278.576 136.28C280.375 137.445 281.63 139.262 281.686 141.119Z" fill="#FD0215" stroke="black" stroke-width="0.5"/>
<path d="M279.947 146.124C280.568 144.431 280.58 140.36 275.662 137.617" stroke="black" stroke-width="0.3"/>
<path d="M265.792 135.726C266.679 135.276 268.544 134.555 268.899 135.276" stroke="black" stroke-width="0.5"/>
<path d="M273.365 134.025C274.826 134.194 274.544 134.317 274.119 134.238C273.878 134.575 274.489 133.245 275.604 134.518C276.719 135.791 274.472 136.867 273.91 135.689C274.642 136.352 274.653 136.912 274.669 137.911C272.988 138.46 271.872 136.373 272.389 136.74C272.389 136.74 272.599 138.982 270.401 138.114C268.204 137.245 268.972 134.702 271.161 135.891C270.35 135.553 268.66 135.478 269.173 134.518C269.686 133.558 271.363 134.021 271.025 134.518C270.163 134.633 271.905 133.856 273.365 134.025Z" fill="#94C11E"/>
<path d="M273.365 134.025C274.826 134.194 274.544 134.317 274.119 134.238C273.878 134.575 274.489 133.245 275.604 134.518C276.719 135.791 274.472 136.867 273.91 135.689C274.642 136.352 274.653 136.912 274.669 137.911C272.988 138.46 271.872 136.373 272.389 136.74C272.389 136.74 272.599 138.982 270.401 138.114C268.204 137.245 268.972 134.702 271.161 135.891C270.35 135.553 268.66 135.478 269.173 134.518C269.686 133.558 271.363 134.021 271.025 134.518C270.163 134.633 271.905 133.856 273.365 134.025Z" fill="#94C11E"/>
<path d="M273.365 134.025C274.826 134.194 274.544 134.317 274.119 134.238C273.878 134.575 274.489 133.245 275.604 134.518C276.719 135.791 274.472 136.867 273.91 135.689C274.642 136.352 274.653 136.912 274.669 137.911C272.988 138.46 271.872 136.373 272.389 136.74C272.389 136.74 272.599 138.982 270.401 138.114C268.204 137.245 268.972 134.702 271.161 135.891C270.35 135.553 268.66 135.478 269.173 134.518C269.686 133.558 271.363 134.021 271.025 134.518C270.163 134.633 271.905 133.856 273.365 134.025Z" stroke="black"/>
<path d="M271.701 132.319C271.482 134.058 271.914 135.186 272.158 135.533C272.343 135.911 272.601 135.627 272.706 135.438C272.737 134.493 272.798 132.432 272.798 131.752C273.163 131.185 271.975 130.145 271.701 132.319Z" fill="#94C11E" stroke="black" stroke-width="0.5"/>
<path d="M313.686 501.119L313.688 501.187L313.725 501.245C313.85 501.441 313.906 501.717 313.874 502.078C313.841 502.437 313.723 502.859 313.523 503.324C313.123 504.253 312.413 505.316 311.499 506.317C309.705 508.279 307.188 509.936 304.789 509.936C302.235 509.936 300.441 509.927 299.007 509.213C297.596 508.509 296.493 507.095 295.428 504.145C294.396 501.29 295.572 498.181 297.548 496.234C298.533 495.263 299.701 494.599 300.863 494.399C302.018 494.201 303.175 494.458 304.174 495.343L304.285 495.442L304.426 495.391C306.494 494.635 308.781 495.117 310.576 496.28C312.375 497.445 313.63 499.262 313.686 501.119Z" fill="#FD0215" stroke="black" stroke-width="0.5"/>
<path d="M311.947 506.124C312.568 504.431 312.58 500.36 307.662 497.617" stroke="black" stroke-width="0.3"/>
<path d="M297.792 495.726C298.679 495.276 300.544 494.555 300.899 495.276" stroke="black" stroke-width="0.5"/>
<path d="M305.365 494.025C306.826 494.194 306.544 494.317 306.119 494.238C305.878 494.575 306.489 493.245 307.604 494.518C308.719 495.791 306.472 496.867 305.91 495.689C306.642 496.352 306.653 496.912 306.669 497.911C304.988 498.46 303.872 496.373 304.389 496.74C304.389 496.74 304.599 498.982 302.401 498.114C300.204 497.245 300.972 494.702 303.161 495.891C302.35 495.553 300.66 495.478 301.173 494.518C301.686 493.558 303.363 494.021 303.025 494.518C302.163 494.633 303.905 493.856 305.365 494.025Z" fill="#94C11E"/>
<path d="M305.365 494.025C306.826 494.194 306.544 494.317 306.119 494.238C305.878 494.575 306.489 493.245 307.604 494.518C308.719 495.791 306.472 496.867 305.91 495.689C306.642 496.352 306.653 496.912 306.669 497.911C304.988 498.46 303.872 496.373 304.389 496.74C304.389 496.74 304.599 498.982 302.401 498.114C300.204 497.245 300.972 494.702 303.161 495.891C302.35 495.553 300.66 495.478 301.173 494.518C301.686 493.558 303.363 494.021 303.025 494.518C302.163 494.633 303.905 493.856 305.365 494.025Z" fill="#94C11E"/>
<path d="M305.365 494.025C306.826 494.194 306.544 494.317 306.119 494.238C305.878 494.575 306.489 493.245 307.604 494.518C308.719 495.791 306.472 496.867 305.91 495.689C306.642 496.352 306.653 496.912 306.669 497.911C304.988 498.46 303.872 496.373 304.389 496.74C304.389 496.74 304.599 498.982 302.401 498.114C300.204 497.245 300.972 494.702 303.161 495.891C302.35 495.553 300.66 495.478 301.173 494.518C301.686 493.558 303.363 494.021 303.025 494.518C302.163 494.633 303.905 493.856 305.365 494.025Z" stroke="black"/>
<path d="M303.701 492.319C303.482 494.058 303.914 495.186 304.158 495.533C304.343 495.911 304.601 495.627 304.706 495.438C304.737 494.493 304.798 492.432 304.798 491.752C305.163 491.185 303.975 490.145 303.701 492.319Z" fill="#94C11E" stroke="black" stroke-width="0.5"/>
<path d="M60.8906 258.119L60.8927 258.187L60.9297 258.245C61.0545 258.441 61.1103 258.717 61.078 259.078C61.0458 259.437 60.9274 259.859 60.7275 260.324C60.3278 261.253 59.6179 262.316 58.7034 263.317C56.9094 265.279 54.3925 266.936 51.9934 266.936C49.4398 266.936 47.6451 266.927 46.2115 266.213C44.8001 265.509 43.6974 264.095 42.6322 261.145C41.6009 258.29 42.7762 255.181 44.752 253.234C45.7373 252.263 46.9052 251.599 48.0676 251.399C49.2223 251.201 50.3798 251.458 51.3783 252.343L51.4899 252.442L51.63 252.391C53.6981 251.635 55.9856 252.117 57.7805 253.28C59.5791 254.445 60.8345 256.262 60.8906 258.119Z" fill="#FD0215" stroke="black" stroke-width="0.5"/>
<path d="M59.1512 263.124C59.7722 261.431 59.7846 257.36 54.8666 254.617" stroke="black" stroke-width="0.3"/>
<path d="M44.996 252.726C45.8838 252.276 47.7483 251.555 48.1034 252.276" stroke="black" stroke-width="0.5"/>
<path d="M52.5699 251.025C54.0306 251.194 53.7485 251.317 53.3235 251.238C53.0827 251.575 53.6939 250.245 54.8088 251.518C55.9237 252.791 53.6761 253.867 53.1147 252.689C53.8463 253.352 53.8571 253.912 53.8738 254.911C52.1926 255.46 51.0765 253.373 51.5932 253.74C51.5932 253.74 51.803 255.982 49.6059 255.114C47.4087 254.245 48.1766 251.702 50.365 252.892C49.5544 252.553 47.8648 252.478 48.3776 251.518C48.8904 250.558 50.5678 251.021 50.2293 251.518C49.3674 251.633 51.1092 250.856 52.5699 251.025Z" fill="#94C11E"/>
<path d="M52.5699 251.025C54.0306 251.194 53.7485 251.317 53.3235 251.238C53.0827 251.575 53.6939 250.245 54.8088 251.518C55.9237 252.791 53.6761 253.867 53.1147 252.689C53.8463 253.352 53.8571 253.912 53.8738 254.911C52.1926 255.46 51.0765 253.373 51.5932 253.74C51.5932 253.74 51.803 255.982 49.6059 255.114C47.4087 254.245 48.1766 251.702 50.365 252.892C49.5544 252.553 47.8648 252.478 48.3776 251.518C48.8904 250.558 50.5678 251.021 50.2293 251.518C49.3674 251.633 51.1092 250.856 52.5699 251.025Z" fill="#94C11E"/>
<path d="M52.5699 251.025C54.0306 251.194 53.7485 251.317 53.3235 251.238C53.0827 251.575 53.6939 250.245 54.8088 251.518C55.9237 252.791 53.6761 253.867 53.1147 252.689C53.8463 253.352 53.8571 253.912 53.8738 254.911C52.1926 255.46 51.0765 253.373 51.5932 253.74C51.5932 253.74 51.803 255.982 49.6059 255.114C47.4087 254.245 48.1766 251.702 50.365 252.892C49.5544 252.553 47.8648 252.478 48.3776 251.518C48.8904 250.558 50.5678 251.021 50.2293 251.518C49.3674 251.633 51.1092 250.856 52.5699 251.025Z" stroke="black"/>
<path d="M50.9054 249.319C50.6861 251.058 51.1187 252.186 51.3624 252.533C51.5474 252.911 51.8051 252.627 51.9108 252.438C51.9412 251.493 52.0022 249.432 52.0022 248.752C52.3677 248.185 51.1796 247.145 50.9054 249.319Z" fill="#94C11E" stroke="black" stroke-width="0.5"/>
<path d="M28.8906 619.119L28.8927 619.187L28.9297 619.245C29.0545 619.441 29.1103 619.717 29.078 620.078C29.0458 620.437 28.9274 620.859 28.7275 621.324C28.3278 622.253 27.6179 623.316 26.7034 624.317C24.9094 626.279 22.3925 627.936 19.9934 627.936C17.4398 627.936 15.6451 627.927 14.2115 627.213C12.8001 626.509 11.6974 625.095 10.6322 622.145C9.60092 619.29 10.7762 616.181 12.752 614.234C13.7373 613.263 14.9052 612.599 16.0676 612.399C17.2223 612.201 18.3798 612.458 19.3783 613.343L19.4899 613.442L19.63 613.391C21.6981 612.635 23.9856 613.117 25.7805 614.28C27.5791 615.445 28.8345 617.262 28.8906 619.119Z" fill="#FD0215" stroke="black" stroke-width="0.5"/>
<path d="M27.1512 624.124C27.7722 622.431 27.7846 618.36 22.8666 615.617" stroke="black" stroke-width="0.3"/>
<path d="M12.996 613.726C13.8838 613.276 15.7483 612.555 16.1034 613.276" stroke="black" stroke-width="0.5"/>
<path d="M20.5699 612.025C22.0306 612.194 21.7485 612.317 21.3235 612.238C21.0827 612.575 21.6939 611.245 22.8088 612.518C23.9237 613.791 21.6761 614.867 21.1147 613.689C21.8463 614.352 21.8571 614.912 21.8738 615.911C20.1926 616.46 19.0765 614.373 19.5932 614.74C19.5932 614.74 19.803 616.982 17.6059 616.114C15.4087 615.245 16.1766 612.702 18.365 613.891C17.5544 613.553 15.8648 613.478 16.3776 612.518C16.8904 611.558 18.5678 612.021 18.2293 612.518C17.3674 612.633 19.1092 611.856 20.5699 612.025Z" fill="#94C11E"/>
<path d="M20.5699 612.025C22.0306 612.194 21.7485 612.317 21.3235 612.238C21.0827 612.575 21.6939 611.245 22.8088 612.518C23.9237 613.791 21.6761 614.867 21.1147 613.689C21.8463 614.352 21.8571 614.912 21.8738 615.911C20.1926 616.46 19.0765 614.373 19.5932 614.74C19.5932 614.74 19.803 616.982 17.6059 616.114C15.4087 615.245 16.1766 612.702 18.365 613.891C17.5544 613.553 15.8648 613.478 16.3776 612.518C16.8904 611.558 18.5678 612.021 18.2293 612.518C17.3674 612.633 19.1092 611.856 20.5699 612.025Z" fill="#94C11E"/>
<path d="M20.5699 612.025C22.0306 612.194 21.7485 612.317 21.3235 612.238C21.0827 612.575 21.6939 611.245 22.8088 612.518C23.9237 613.791 21.6761 614.867 21.1147 613.689C21.8463 614.352 21.8571 614.912 21.8738 615.911C20.1926 616.46 19.0765 614.373 19.5932 614.74C19.5932 614.74 19.803 616.982 17.6059 616.114C15.4087 615.245 16.1766 612.702 18.365 613.891C17.5544 613.553 15.8648 613.478 16.3776 612.518C16.8904 611.558 18.5678 612.021 18.2293 612.518C17.3674 612.633 19.1092 611.856 20.5699 612.025Z" stroke="black"/>
<path d="M18.9054 610.319C18.6861 612.058 19.1187 613.186 19.3624 613.533C19.5474 613.911 19.8051 613.627 19.9108 613.438C19.9412 612.493 20.0022 610.432 20.0022 609.752C20.3677 609.185 19.1796 608.145 18.9054 610.319Z" fill="#94C11E" stroke="black" stroke-width="0.5"/>
<path d="M211.719 258.119L211.721 258.187L211.758 258.245C211.883 258.441 211.939 258.717 211.907 259.078C211.875 259.437 211.756 259.859 211.556 260.324C211.157 261.253 210.447 262.316 209.532 263.317C207.738 265.279 205.221 266.936 202.822 266.936C200.269 266.936 198.474 266.927 197.04 266.213C195.629 265.509 194.526 264.095 193.461 261.145C192.43 258.29 193.605 255.181 195.581 253.234C196.566 252.263 197.734 251.599 198.896 251.399C200.051 251.201 201.208 251.458 202.207 252.343L202.319 252.442L202.459 252.391C204.527 251.635 206.814 252.117 208.609 253.28C210.408 254.445 211.663 256.262 211.719 258.119Z" fill="#FD0215" stroke="black" stroke-width="0.5"/>
<path d="M209.98 263.124C210.601 261.431 210.613 257.36 205.695 254.617" stroke="black" stroke-width="0.3"/>
<path d="M195.825 252.726C196.713 252.276 198.577 251.555 198.932 252.276" stroke="black" stroke-width="0.5"/>
<path d="M203.399 251.025C204.859 251.194 204.577 251.317 204.152 251.238C203.911 251.575 204.523 250.245 205.638 251.518C206.752 252.791 204.505 253.867 203.943 252.689C204.675 253.352 204.686 253.912 204.703 254.911C203.021 255.46 201.905 253.373 202.422 253.74C202.422 253.74 202.632 255.982 200.435 255.114C198.237 254.245 199.005 251.702 201.194 252.892C200.383 252.553 198.694 252.478 199.206 251.518C199.719 250.558 201.397 251.021 201.058 251.518C200.196 251.633 201.938 250.856 203.399 251.025Z" fill="#94C11E"/>
<path d="M203.399 251.025C204.859 251.194 204.577 251.317 204.152 251.238C203.911 251.575 204.523 250.245 205.638 251.518C206.752 252.791 204.505 253.867 203.943 252.689C204.675 253.352 204.686 253.912 204.703 254.911C203.021 255.46 201.905 253.373 202.422 253.74C202.422 253.74 202.632 255.982 200.435 255.114C198.237 254.245 199.005 251.702 201.194 252.892C200.383 252.553 198.694 252.478 199.206 251.518C199.719 250.558 201.397 251.021 201.058 251.518C200.196 251.633 201.938 250.856 203.399 251.025Z" fill="#94C11E"/>
<path d="M203.399 251.025C204.859 251.194 204.577 251.317 204.152 251.238C203.911 251.575 204.523 250.245 205.638 251.518C206.752 252.791 204.505 253.867 203.943 252.689C204.675 253.352 204.686 253.912 204.703 254.911C203.021 255.46 201.905 253.373 202.422 253.74C202.422 253.74 202.632 255.982 200.435 255.114C198.237 254.245 199.005 251.702 201.194 252.892C200.383 252.553 198.694 252.478 199.206 251.518C199.719 250.558 201.397 251.021 201.058 251.518C200.196 251.633 201.938 250.856 203.399 251.025Z" stroke="black"/>
<path d="M201.734 249.319C201.515 251.058 201.947 252.186 202.191 252.533C202.376 252.911 202.634 252.627 202.739 252.438C202.77 251.493 202.831 249.432 202.831 248.752C203.196 248.185 202.008 247.145 201.734 249.319Z" fill="#94C11E" stroke="black" stroke-width="0.5"/>
<path d="M179.719 619.119L179.721 619.187L179.758 619.245C179.883 619.441 179.939 619.717 179.907 620.078C179.875 620.437 179.756 620.859 179.556 621.324C179.157 622.253 178.447 623.316 177.532 624.317C175.738 626.279 173.221 627.936 170.822 627.936C168.269 627.936 166.474 627.927 165.04 627.213C163.629 626.509 162.526 625.095 161.461 622.145C160.43 619.29 161.605 616.181 163.581 614.234C164.566 613.263 165.734 612.599 166.896 612.399C168.051 612.201 169.208 612.458 170.207 613.343L170.319 613.442L170.459 613.391C172.527 612.635 174.814 613.117 176.609 614.28C178.408 615.445 179.663 617.262 179.719 619.119Z" fill="#FD0215" stroke="black" stroke-width="0.5"/>
<path d="M177.98 624.124C178.601 622.431 178.613 618.36 173.695 615.617" stroke="black" stroke-width="0.3"/>
<path d="M163.825 613.726C164.713 613.276 166.577 612.555 166.932 613.276" stroke="black" stroke-width="0.5"/>
<path d="M171.399 612.025C172.859 612.194 172.577 612.317 172.152 612.238C171.911 612.575 172.523 611.245 173.638 612.518C174.752 613.791 172.505 614.867 171.943 613.689C172.675 614.352 172.686 614.912 172.703 615.911C171.021 616.46 169.905 614.373 170.422 614.74C170.422 614.74 170.632 616.982 168.435 616.114C166.237 615.245 167.005 612.702 169.194 613.891C168.383 613.553 166.694 613.478 167.206 612.518C167.719 611.558 169.397 612.021 169.058 612.518C168.196 612.633 169.938 611.856 171.399 612.025Z" fill="#94C11E"/>
<path d="M171.399 612.025C172.859 612.194 172.577 612.317 172.152 612.238C171.911 612.575 172.523 611.245 173.638 612.518C174.752 613.791 172.505 614.867 171.943 613.689C172.675 614.352 172.686 614.912 172.703 615.911C171.021 616.46 169.905 614.373 170.422 614.74C170.422 614.74 170.632 616.982 168.435 616.114C166.237 615.245 167.005 612.702 169.194 613.891C168.383 613.553 166.694 613.478 167.206 612.518C167.719 611.558 169.397 612.021 169.058 612.518C168.196 612.633 169.938 611.856 171.399 612.025Z" fill="#94C11E"/>
<path d="M171.399 612.025C172.859 612.194 172.577 612.317 172.152 612.238C171.911 612.575 172.523 611.245 173.638 612.518C174.752 613.791 172.505 614.867 171.943 613.689C172.675 614.352 172.686 614.912 172.703 615.911C171.021 616.46 169.905 614.373 170.422 614.74C170.422 614.74 170.632 616.982 168.435 616.114C166.237 615.245 167.005 612.702 169.194 613.891C168.383 613.553 166.694 613.478 167.206 612.518C167.719 611.558 169.397 612.021 169.058 612.518C168.196 612.633 169.938 611.856 171.399 612.025Z" stroke="black"/>
<path d="M169.734 610.319C169.515 612.058 169.947 613.186 170.191 613.533C170.376 613.911 170.634 613.627 170.739 613.438C170.77 612.493 170.831 610.432 170.831 609.752C171.196 609.185 170.008 608.145 169.734 610.319Z" fill="#94C11E" stroke="black" stroke-width="0.5"/>
<path d="M349.979 259.119L349.981 259.187L350.018 259.245C350.143 259.441 350.199 259.717 350.166 260.078C350.134 260.437 350.016 260.859 349.816 261.324C349.416 262.253 348.706 263.316 347.792 264.317C345.998 266.279 343.481 267.936 341.082 267.936C338.528 267.936 336.733 267.927 335.3 267.213C333.889 266.509 332.786 265.095 331.721 262.145C330.689 259.29 331.865 256.181 333.84 254.234C334.826 253.263 335.994 252.599 337.156 252.399C338.311 252.201 339.468 252.458 340.467 253.343L340.578 253.442L340.718 253.391C342.786 252.635 345.074 253.117 346.869 254.28C348.667 255.445 349.923 257.262 349.979 259.119Z" fill="#FD0215" stroke="black" stroke-width="0.5"/>
<path d="M348.24 264.124C348.861 262.431 348.873 258.36 343.955 255.617" stroke="black" stroke-width="0.3"/>
<path d="M334.084 253.726C334.972 253.276 336.837 252.555 337.192 253.276" stroke="black" stroke-width="0.5"/>
<path d="M341.658 252.025C343.119 252.194 342.837 252.317 342.412 252.238C342.171 252.575 342.782 251.245 343.897 252.518C345.012 253.791 342.765 254.867 342.203 253.689C342.935 254.352 342.946 254.912 342.962 255.911C341.281 256.46 340.165 254.373 340.682 254.74C340.682 254.74 340.891 256.982 338.694 256.114C336.497 255.245 337.265 252.702 339.453 253.892C338.643 253.553 336.953 253.478 337.466 252.518C337.979 251.558 339.656 252.021 339.318 252.518C338.456 252.633 340.198 251.856 341.658 252.025Z" fill="#94C11E"/>
<path d="M341.658 252.025C343.119 252.194 342.837 252.317 342.412 252.238C342.171 252.575 342.782 251.245 343.897 252.518C345.012 253.791 342.765 254.867 342.203 253.689C342.935 254.352 342.946 254.912 342.962 255.911C341.281 256.46 340.165 254.373 340.682 254.74C340.682 254.74 340.891 256.982 338.694 256.114C336.497 255.245 337.265 252.702 339.453 253.892C338.643 253.553 336.953 253.478 337.466 252.518C337.979 251.558 339.656 252.021 339.318 252.518C338.456 252.633 340.198 251.856 341.658 252.025Z" fill="#94C11E"/>
<path d="M341.658 252.025C343.119 252.194 342.837 252.317 342.412 252.238C342.171 252.575 342.782 251.245 343.897 252.518C345.012 253.791 342.765 254.867 342.203 253.689C342.935 254.352 342.946 254.912 342.962 255.911C341.281 256.46 340.165 254.373 340.682 254.74C340.682 254.74 340.891 256.982 338.694 256.114C336.497 255.245 337.265 252.702 339.453 253.892C338.643 253.553 336.953 253.478 337.466 252.518C337.979 251.558 339.656 252.021 339.318 252.518C338.456 252.633 340.198 251.856 341.658 252.025Z" stroke="black"/>
<path d="M339.994 250.319C339.775 252.058 340.207 253.186 340.451 253.533C340.636 253.911 340.893 253.627 340.999 253.438C341.03 252.493 341.091 250.432 341.091 249.752C341.456 249.185 340.268 248.145 339.994 250.319Z" fill="#94C11E" stroke="black" stroke-width="0.5"/>
<path d="M317.979 620.119L317.981 620.187L318.018 620.245C318.143 620.441 318.199 620.717 318.166 621.078C318.134 621.437 318.016 621.859 317.816 622.324C317.416 623.253 316.706 624.316 315.792 625.317C313.998 627.279 311.481 628.936 309.082 628.936C306.528 628.936 304.733 628.927 303.3 628.213C301.889 627.509 300.786 626.095 299.721 623.145C298.689 620.29 299.865 617.181 301.84 615.234C302.826 614.263 303.994 613.599 305.156 613.399C306.311 613.201 307.468 613.458 308.467 614.343L308.578 614.442L308.718 614.391C310.786 613.635 313.074 614.117 314.869 615.28C316.667 616.445 317.923 618.262 317.979 620.119Z" fill="#FD0215" stroke="black" stroke-width="0.5"/>
<path d="M316.24 625.124C316.861 623.431 316.873 619.36 311.955 616.617" stroke="black" stroke-width="0.3"/>
<path d="M302.084 614.726C302.972 614.276 304.837 613.555 305.192 614.276" stroke="black" stroke-width="0.5"/>
<path d="M309.658 613.025C311.119 613.194 310.837 613.317 310.412 613.238C310.171 613.575 310.782 612.245 311.897 613.518C313.012 614.791 310.765 615.867 310.203 614.689C310.935 615.352 310.946 615.912 310.962 616.911C309.281 617.46 308.165 615.373 308.682 615.74C308.682 615.74 308.891 617.982 306.694 617.114C304.497 616.245 305.265 613.702 307.453 614.891C306.643 614.553 304.953 614.478 305.466 613.518C305.979 612.558 307.656 613.021 307.318 613.518C306.456 613.633 308.198 612.856 309.658 613.025Z" fill="#94C11E"/>
<path d="M309.658 613.025C311.119 613.194 310.837 613.317 310.412 613.238C310.171 613.575 310.782 612.245 311.897 613.518C313.012 614.791 310.765 615.867 310.203 614.689C310.935 615.352 310.946 615.912 310.962 616.911C309.281 617.46 308.165 615.373 308.682 615.74C308.682 615.74 308.891 617.982 306.694 617.114C304.497 616.245 305.265 613.702 307.453 614.891C306.643 614.553 304.953 614.478 305.466 613.518C305.979 612.558 307.656 613.021 307.318 613.518C306.456 613.633 308.198 612.856 309.658 613.025Z" fill="#94C11E"/>
<path d="M309.658 613.025C311.119 613.194 310.837 613.317 310.412 613.238C310.171 613.575 310.782 612.245 311.897 613.518C313.012 614.791 310.765 615.867 310.203 614.689C310.935 615.352 310.946 615.912 310.962 616.911C309.281 617.46 308.165 615.373 308.682 615.74C308.682 615.74 308.891 617.982 306.694 617.114C304.497 616.245 305.265 613.702 307.453 614.891C306.643 614.553 304.953 614.478 305.466 613.518C305.979 612.558 307.656 613.021 307.318 613.518C306.456 613.633 308.198 612.856 309.658 613.025Z" stroke="black"/>
<path d="M307.994 611.319C307.774 613.058 308.207 614.186 308.451 614.533C308.636 614.911 308.893 614.627 308.999 614.438C309.03 613.493 309.091 611.432 309.091 610.752C309.456 610.185 308.268 609.145 307.994 611.319Z" fill="#94C11E" stroke="black" stroke-width="0.5"/>
<path d="M339.25 24.1185L339.252 24.1873L339.289 24.2454C339.414 24.441 339.469 24.7174 339.437 25.0776C339.405 25.4366 339.287 25.8592 339.087 26.324C338.687 27.2532 337.977 28.316 337.063 29.3166C335.268 31.2794 332.752 32.9356 330.353 32.9356C327.799 32.9356 326.004 32.9268 324.571 32.2126C323.159 31.5095 322.057 30.0949 320.991 27.1455C319.96 24.29 321.135 21.1807 323.111 19.2339C324.096 18.2631 325.264 17.5992 326.427 17.3994C327.581 17.2009 328.739 17.4576 329.737 18.3428L329.849 18.4417L329.989 18.3906C332.057 17.6348 334.345 18.1168 336.14 19.2799C337.938 20.4454 339.194 22.262 339.25 24.1185Z" fill="#FD0215" stroke="black" stroke-width="0.5"/>
<path d="M337.51 29.1244C338.131 27.4314 338.144 23.3597 333.226 20.6169" stroke="black" stroke-width="0.3"/>
<path d="M323.355 18.7264C324.243 18.2759 326.107 17.5552 326.463 18.2759" stroke="black" stroke-width="0.5"/>
<path d="M330.929 17.0249C332.39 17.194 332.108 17.3168 331.683 17.2382C331.442 17.5747 332.053 16.245 333.168 17.5181C334.283 18.7911 332.035 19.8669 331.474 18.6888C332.205 19.3521 332.216 19.9117 332.233 20.9111C330.552 21.4597 329.436 19.3726 329.952 19.7403C329.952 19.7403 330.162 21.9824 327.965 21.1137C325.768 20.245 326.536 17.7015 328.724 18.8915C327.913 18.5529 326.224 18.4777 326.737 17.5181C327.25 16.5585 328.927 17.0211 328.588 17.5181C327.727 17.633 329.468 16.8558 330.929 17.0249Z" fill="#94C11E"/>
<path d="M330.929 17.0249C332.39 17.194 332.108 17.3168 331.683 17.2382C331.442 17.5747 332.053 16.245 333.168 17.5181C334.283 18.7911 332.035 19.8669 331.474 18.6888C332.205 19.3521 332.216 19.9117 332.233 20.9111C330.552 21.4597 329.436 19.3726 329.952 19.7403C329.952 19.7403 330.162 21.9824 327.965 21.1137C325.768 20.245 326.536 17.7015 328.724 18.8915C327.913 18.5529 326.224 18.4777 326.737 17.5181C327.25 16.5585 328.927 17.0211 328.588 17.5181C327.727 17.633 329.468 16.8558 330.929 17.0249Z" fill="#94C11E"/>
<path d="M330.929 17.0249C332.39 17.194 332.108 17.3168 331.683 17.2382C331.442 17.5747 332.053 16.245 333.168 17.5181C334.283 18.7911 332.035 19.8669 331.474 18.6888C332.205 19.3521 332.216 19.9117 332.233 20.9111C330.552 21.4597 329.436 19.3726 329.952 19.7403C329.952 19.7403 330.162 21.9824 327.965 21.1137C325.768 20.245 326.536 17.7015 328.724 18.8915C327.913 18.5529 326.224 18.4777 326.737 17.5181C327.25 16.5585 328.927 17.0211 328.588 17.5181C327.727 17.633 329.468 16.8558 330.929 17.0249Z" stroke="black"/>
<path d="M329.265 15.3189C329.045 17.0582 329.478 18.1863 329.722 18.5329C329.906 18.911 330.164 18.6274 330.27 18.4383C330.3 17.4931 330.361 15.4324 330.361 14.7518C330.727 14.1846 329.539 13.1448 329.265 15.3189Z" fill="#94C11E" stroke="black" stroke-width="0.5"/>
</svg>
