<svg width="50" height="59" viewBox="0 0 50 59" fill="none" xmlns="http://www.w3.org/2000/svg">
<path d="M49.242 31.5274L49.2436 31.5878L49.2725 31.6408C49.6659 32.3611 49.8141 33.3267 49.7249 34.487C49.636 35.645 49.3121 36.9773 48.7832 38.4129C47.7255 41.284 45.8587 44.5391 43.4705 47.5896C41.1396 50.5667 38.3194 53.3394 35.2839 55.3658C32.2468 57.3933 29.01 58.6637 25.8402 58.6637C19.2676 58.6637 14.5289 58.6468 10.7272 56.4358C6.94019 54.2334 4.03583 49.8184 1.26549 40.8633C-1.47882 31.9925 1.65966 22.3967 6.85092 16.4254C9.44551 13.441 12.5343 11.3837 15.6287 10.7627C18.7092 10.1445 21.8179 10.9438 24.4987 13.7183L24.6183 13.842L24.7766 13.7745C30.2525 11.4384 36.2848 12.9337 41.0044 16.504C45.7252 20.0752 49.0908 25.6933 49.242 31.5274Z" fill="#FD0215" stroke="black" stroke-width="0.5"/>
<path d="M44.3482 46.6545C45.9538 41.5439 45.9859 29.253 33.2693 20.9738" stroke="black" stroke-width="0.3"/>
<path d="M7.74685 15.267C10.0425 13.9073 14.8634 11.7317 15.7817 13.9073" stroke="black" stroke-width="0.5"/>
<path d="M28.6535 10.8421C28.2853 10.775 27.827 10.7025 27.2637 10.6264C25.4843 10.3859 23.5 10.82 22.2232 11.2839C22.1 11.3287 21.9846 11.3733 21.8777 11.417C21.8519 11.5724 21.7958 11.7253 21.7104 11.8717L21.5905 12.0772L21.3554 12.1138C21.2034 12.1374 21.067 12.1517 20.949 12.1544C20.8431 12.1568 20.7038 12.1517 20.5736 12.1045C20.5056 12.0799 20.4037 12.031 20.3183 11.9309C20.2217 11.8178 20.1768 11.6746 20.1871 11.5313C20.1963 11.405 20.2457 11.3084 20.2825 11.2505C20.3212 11.1896 20.3659 11.1405 20.4043 11.1031C20.4797 11.0298 20.5768 10.9587 20.6857 10.8907C20.4672 10.705 20.0962 10.5358 19.6344 10.4651C18.6423 10.3133 17.488 10.6422 16.9453 11.8278C16.6619 12.4469 16.7181 12.8276 16.8728 13.0964C17.0495 13.4036 17.4191 13.6808 17.9857 13.9414C18.2912 14.0819 18.6293 14.2069 18.9862 14.3262C19.8539 14.3452 20.8369 14.6702 21.8973 15.3433L21.4102 16.2149C20.9283 15.9799 20.3031 15.7854 19.6087 15.5718L19.571 15.5602C19.3281 15.4855 19.0779 15.4085 18.8279 15.327C18.6254 15.3331 18.4408 15.3625 18.2742 15.4101C17.5771 15.6097 17.0867 16.1602 16.8778 16.9214C16.4568 18.4552 17.2294 20.7978 19.8761 22.0195C21.2339 22.6462 22.1219 22.6658 22.6988 22.4608C23.2685 22.2584 23.6504 21.7956 23.9055 21.1899C24.162 20.5809 24.266 19.8797 24.3023 19.3123C24.3026 19.3078 24.3029 19.3033 24.3031 19.2988C24.2098 19.1243 24.1357 18.9617 24.0826 18.8174C24.0379 18.6961 24.0012 18.5699 23.9852 18.4495C23.9731 18.3586 23.9537 18.1487 24.0764 17.9581C24.1511 17.8421 24.2684 17.751 24.4155 17.7136C24.5488 17.6798 24.667 17.6999 24.7461 17.7234C24.8958 17.7679 25.0258 17.8608 25.1248 17.9431L25.2868 18.0777L25.3037 18.2877L24.9764 18.314M28.6535 10.8421L29.9358 10.1086C30.6177 9.74011 31.7139 9.74547 33.1199 11.6197C35.2931 14.5166 32.5255 17.075 30.4094 16.6357C30.2977 16.41 30.1703 16.1869 30.025 15.9644M28.6535 10.8421C28.6535 10.8422 28.6535 10.8422 28.6535 10.8423C28.6488 10.868 28.6385 10.9324 28.6501 11.0124C28.6605 11.0843 28.7103 11.2927 28.9357 11.3981C29.14 11.4935 29.3168 11.4194 29.3622 11.3985C29.4244 11.3698 29.4674 11.3348 29.4865 11.3185C29.6767 11.3442 29.8537 11.3535 29.9981 11.3453C30.0551 11.342 30.1167 11.3355 30.1773 11.3229C30.2294 11.312 30.3204 11.2889 30.4102 11.2317C30.5016 11.1735 30.6833 11.0123 30.6615 10.7369C30.6504 10.597 30.5887 10.4944 30.533 10.428C30.6874 10.4065 30.8617 10.4187 31.059 10.484C31.4688 10.6197 32.0319 11.0025 32.72 11.9198C33.3675 12.7829 33.4953 13.563 33.366 14.1926C33.2342 14.8342 32.8222 15.3831 32.2782 15.7451C31.7312 16.109 31.0904 16.2579 30.5363 16.1512C30.3605 16.1173 30.188 16.0569 30.025 15.9644M24.9764 18.314C24.9761 18.3024 24.9746 18.3012 24.976 18.314M24.9764 18.314L24.976 18.314M24.9764 18.314C24.9772 18.3393 24.9722 18.4142 24.9171 18.4996C24.8627 18.5841 24.7733 18.6545 24.6617 18.6829C24.5962 18.6995 24.5409 18.6972 24.5032 18.6913M24.976 18.314L24.8053 18.3277C24.8703 18.3225 24.9269 18.3179 24.976 18.314M24.976 18.314C24.976 18.314 24.976 18.314 24.976 18.314M24.976 18.314C24.9762 18.3151 24.9763 18.3164 24.9765 18.3177C24.9792 18.3384 24.9903 18.3886 25.0209 18.4717C25.077 18.624 25.1759 18.8257 25.3152 19.0547M24.976 18.314C25.3037 18.2878 25.3037 18.288 25.3037 18.2882L25.3038 18.2888L25.3039 18.2905L25.3043 18.2958L25.3055 18.3136C25.3065 18.3286 25.3079 18.3497 25.3093 18.3767C25.3121 18.4305 25.3154 18.5072 25.3174 18.603C25.3199 18.7249 25.3204 18.8783 25.3152 19.0547M25.3152 19.0547C25.3123 19.1549 25.3075 19.2625 25.3002 19.3761C25.2907 19.525 25.2768 19.686 25.2568 19.855C26.2893 21.2197 28.2663 22.7897 30.7022 21.8617C30.6731 19.8244 30.6509 18.3925 30.0568 17.0607C29.7872 16.9776 29.5311 16.8523 29.2961 16.6835M25.3152 19.0547C25.484 19.332 25.7121 19.6492 25.9955 19.9665C26.9758 21.0642 28.4527 21.998 30.1969 21.5032C30.1759 20.1629 30.1421 19.1476 29.9276 18.2427C29.7988 17.6997 29.6035 17.1927 29.2961 16.6835M29.2961 16.6835C29.0614 16.2949 28.7614 15.9051 28.376 15.4971L28.7394 15.1538L29.2023 14.9648C29.4042 15.4592 29.6953 15.7774 30.025 15.9644M29.2961 16.6835C28.8732 16.38 28.5186 15.9357 28.2765 15.3427L29.1029 14.8104C29.4708 15.1998 29.7745 15.5811 30.025 15.9644M30.025 15.9644L24.5032 18.6913M24.5032 18.6913L24.4858 18.7123C24.4474 18.6804 24.4294 18.6704 24.4295 18.6702C24.4296 18.67 24.4404 18.6758 24.461 18.6819C24.4703 18.6847 24.4846 18.6884 24.5032 18.6913Z" fill="#94C11E" stroke="black"/>
<path d="M23.0269 4.98134C22.4597 10.2316 23.5783 13.6367 24.2085 14.6829C24.6868 15.8243 25.353 14.9682 25.6264 14.3976C25.7052 11.5442 25.8627 5.32375 25.8627 3.26929C26.808 1.55725 23.7358 -1.58149 23.0269 4.98134Z" fill="#94C11E" stroke="black" stroke-width="0.5"/>
</svg>
